HIERARCHY
ROOT Hips
{
	OFFSET 0.000000 0.000000 0.000000
	CHANNELS 6 Xposition Yposition Zposition Zrotation Yrotation Xrotation 
	JOINT LHipJoint
	{
		OFFSET 0.000000 0.000000 0.000000
		CHANNELS 3 Zrotation Yrotation Xrotation
		JOINT LeftUpLeg
		{
			OFFSET 1.363060 -1.794630 0.839290
			CHANNELS 3 Zrotation Yrotation Xrotation
			JOINT LeftLeg
			{
				OFFSET 2.448110 -6.726130 0.000000
				CHANNELS 3 Zrotation Yrotation Xrotation
				JOINT LeftFoot
				{
					OFFSET 2.562200 -7.039590 0.000000
					CHANNELS 3 Zrotation Yrotation Xrotation
					JOINT LeftToeBase
					{
						OFFSET 0.157640 -0.433110 2.322550
						CHANNELS 3 Zrotation Yrotation Xrotation
						End Site
						{
							OFFSET 0.000000 0.000000 0.000000
						}
					}
				}
			}
		}
	}
	JOINT RHipJoint
	{
		OFFSET 0.000000 0.000000 0.000000
		CHANNELS 3 Zrotation Yrotation Xrotation
		JOINT RightUpLeg
		{
			OFFSET -1.305520 -1.794630 0.839290
			CHANNELS 3 Zrotation Yrotation Xrotation
			JOINT RightLeg
			{
				OFFSET -2.542530 -6.985550 0.000000
				CHANNELS 3 Zrotation Yrotation Xrotation
				JOINT RightFoot
				{
					OFFSET -2.568260 -7.056230 0.000000
					CHANNELS 3 Zrotation Yrotation Xrotation
					JOINT RightToeBase
					{
						OFFSET -0.164730 -0.452590 2.363150
						CHANNELS 3 Zrotation Yrotation Xrotation
						End Site
						{
							OFFSET 0.000000 0.000000 0.000000
						}
					}
				}
			}
		}
	}
}
MOTION
Frames: 33
Frame Time: 0.008333
2.838024 16.867920 0.867333 67.901316 -88.858721 -58.740205 -10.189082 2.350321 1.475918 -6.861269 14.553698 -23.392946 -2.154001 0.373163 26.285527 1.781105 9.923227 -10.856375 -0.689599 0.000000 -49.623299 11.056130 -1.480792 1.825442 -1.948280 -10.144017 -17.841191 1.361093 -0.737681 23.674960 -1.305701 -5.367883 -6.864388 -0.320200 0.000000 -74.096900
2.810833 16.871622 0.873232 22.905422 -88.319711 -13.459562 -10.115118 2.960769 2.189482 -6.380624 12.667906 -24.258870 -2.266719 0.645790 26.334052 1.766768 9.550169 -10.890934 -0.637400 -0.000000 -49.607399 11.052700 -0.960270 1.437323 -1.226865 -11.436347 -17.214264 1.233333 -0.365175 23.108983 -1.433138 -6.313150 -6.758993 -0.388600 0.000000 -73.808100
2.787395 16.879314 0.869427 14.719674 -86.719044 -5.142074 -10.251507 3.059694 2.569940 -6.235042 11.432507 -24.473582 -2.264302 0.658044 25.956918 1.684022 8.966888 -10.670152 -0.560500 0.000000 -49.662500 10.879554 -0.935317 1.298984 -0.985638 -12.081423 -16.583209 1.176386 -0.238878 22.547107 -1.639759 -7.527221 -6.722450 -0.470000 0.000000 -73.465901
2.763165 16.890874 0.864879 10.556358 -84.816248 -0.851388 -10.308914 3.106520 2.957535 -6.045871 10.007367 -24.586847 -2.232087 0.628362 25.451516 1.601552 8.408977 -10.352007 -0.473801 0.000000 -49.682400 10.777705 -0.964715 1.162065 -0.712432 -12.828005 -15.846165 1.134395 -0.132741 21.786349 -1.862219 -8.830393 -6.594021 -0.579300 0.000000 -73.120200
2.738181 16.906254 0.859704 8.190653 -82.741066 1.635642 -10.309169 3.141691 3.360454 -5.827828 8.418291 -24.599518 -2.185438 0.577749 24.795055 1.523331 7.902662 -9.934441 -0.379000 0.000000 -49.674800 10.726682 -1.009658 1.012551 -0.429711 -13.670148 -15.005495 1.097525 -0.027834 20.834643 -2.089139 -10.177927 -6.358200 -0.723900 -0.000000 -72.777600
2.712292 16.925324 0.854048 6.761344 -80.548270 3.180124 -10.269470 3.175131 3.780252 -5.590743 6.682519 -24.511021 -2.129391 0.512601 23.977388 1.450762 7.460527 -9.413753 -0.277201 0.000000 -49.650700 10.710431 -1.061716 0.847074 -0.154454 -14.610666 -14.070981 1.065097 0.080860 19.694254 -2.311951 -11.535305 -6.004386 -0.911400 0.000000 -72.440100
2.685049 16.947845 0.848107 5.871008 -78.271816 4.186348 -10.199496 3.209576 4.217157 -5.340189 4.818104 -24.326536 -2.066792 0.435217 22.994737 1.384403 7.089298 -8.786705 -0.168399 -0.000000 -49.623300 10.720158 -1.121019 0.668007 0.103590 -15.649509 -13.058529 1.038919 0.194612 18.367221 -2.522895 -12.871603 -5.523908 -1.149000 0.000000 -72.113701
2.656432 16.973448 0.842180 5.310244 -75.939454 4.864270 -10.104890 3.244523 4.667429 -5.079209 2.850817 -24.051117 -2.000372 0.347076 21.848216 1.323887 6.789529 -8.052888 -0.052600 0.000000 -49.598700 10.751481 -1.189347 0.479105 0.335666 -16.777608 -11.982490 1.020599 0.312728 16.860377 -2.715220 -14.160575 -4.910573 -1.443100 0.000000 -71.802001
2.625566 17.001607 0.836799 4.955215 -73.568949 5.357941 -9.988520 3.280728 5.137860 -4.805544 0.785391 -23.713789 -1.931520 0.248226 20.541035 1.270393 6.569575 -7.210444 0.072299 0.000000 -49.607201 10.801631 -1.270628 0.290889 0.545291 -17.983971 -10.879893 1.013298 0.435675 15.186827 -2.883504 -15.378433 -4.168491 -1.796200 0.000000 -71.491000
2.592805 17.031685 0.832345 4.732858 -71.183029 5.738829 -9.853553 3.316722 5.619667 -4.516819 -1.339492 -23.321167 -1.863989 0.140793 19.086788 1.221727 6.417639 -6.266567 0.207000 0.000000 -49.635400 10.869711 -1.366634 0.107181 0.728669 -19.243292 -9.758948 1.016957 0.561230 13.366633 -3.023795 -16.510606 -3.295582 -2.210900 0.000000 -71.197600
2.558072 17.062864 0.829464 4.592473 -68.795022 6.068650 -9.701913 3.352481 6.113421 -4.206724 -3.507027 -22.899660 -1.800163 0.026001 17.501243 1.177328 6.330482 -5.228496 0.353400 -0.000000 -49.690800 10.954883 -1.479342 -0.064508 0.891273 -20.531962 -8.646687 1.032509 0.688127 11.429331 -3.133758 -17.544925 -2.300894 -2.684600 -0.000000 -70.920800
2.522025 17.094257 0.828660 4.499408 -66.417615 6.382237 -9.535596 3.387612 6.615571 -3.868600 -5.693446 -22.470306 -1.742814 -0.094023 15.807655 1.135749 6.298863 -4.108387 0.512400 -0.000000 -49.769000 11.056553 -1.608734 -0.220155 1.037394 -21.824719 -7.563096 1.059609 0.813855 9.416198 -3.212630 -18.473299 -1.199014 -3.210700 0.000001 -70.662700
2.485424 17.124934 0.830463 4.431052 -64.062464 6.701248 -9.357317 3.422143 7.120255 -3.496683 -7.868553 -22.051998 -1.694974 -0.216657 14.037651 1.094668 6.306168 -2.924468 0.683100 -0.000001 -49.858800 11.173585 -1.753905 -0.358286 1.171066 -23.100098 -6.523965 1.097545 0.935263 7.376946 -3.260491 -19.287956 -0.008721 -3.777900 0.000000 -70.437000
2.449809 17.154016 0.835048 4.371367 -61.743308 7.027482 -9.170228 3.455662 7.618528 -3.090901 -9.997787 -21.655733 -1.659468 -0.338777 12.227619 1.051621 6.332901 -1.699352 0.862500 -0.000000 -49.946800 11.304237 -1.911549 -0.481243 1.290599 -24.342574 -5.540752 1.144936 1.048100 5.372633 -3.278076 -19.978279 1.242915 -4.368300 0.000000 -70.251701
2.416656 17.180732 0.842338 4.313879 -59.478645 7.349471 -8.978773 3.488107 8.098438 -2.658939 -12.036855 -21.282439 -1.639053 -0.457124 10.418827 1.003568 6.353012 -0.460188 1.043700 0.000000 -50.019299 11.445694 -2.077702 -0.593840 1.388719 -25.544707 -4.618507 1.200220 1.147603 3.470215 -3.266267 -20.528995 2.523120 -4.957100 0.000000 -70.120299
2.387882 17.204529 0.851864 4.254308 -57.293625 7.643719 -8.789071 3.518795 8.544946 -2.219449 -13.932686 -20.921932 -1.636002 -0.568361 8.655496 0.947269 6.335599 0.762181 1.216400 0.000000 -50.065800 11.593446 -2.247611 -0.702720 1.451387 -26.704356 -3.755648 1.261499 1.228783 1.737555 -3.226281 -20.921665 3.794693 -5.514600 -0.000000 -70.052300
2.365294 17.225161 0.862692 4.192017 -55.221728 7.878476 -8.609115 3.546505 8.941200 -1.801626 -15.626335 -20.551226 -1.651722 -0.669632 6.979099 0.879885 6.249379 1.936581 1.367500 0.000000 -50.083000 11.741232 -2.416767 -0.813857 1.459925 -27.817355 -2.942557 1.325961 1.287301 0.232220 -3.160581 -21.142852 5.022502 -6.011300 -0.000000 -70.069699
2.350461 17.242685 0.873524 4.130987 -53.303563 8.019847 -8.448173 3.569124 9.270388 -1.442859 -17.058921 -20.139976 -1.686567 -0.759092 5.424737 0.799635 6.068291 3.034913 1.483400 0.000001 -50.075700 11.881555 -2.580853 -0.931322 1.393407 -28.874792 -2.169010 1.390149 1.319608 -0.996087 -3.072924 -21.183530 6.167653 -6.418300 0.000000 -70.159300
2.344523 17.257419 0.882878 4.076507 -51.584135 8.037341 -8.316434 3.583538 9.516994 -1.182150 -18.177649 -19.652759 -1.739499 -0.835983 4.017398 0.706267 5.776321 4.035002 1.553100 -0.000000 -50.056801 12.006106 -2.736435 -1.056076 1.233200 -29.857181 -1.421343 1.449213 1.323829 -1.922447 -2.969444 -21.053363 7.202919 -6.719500 0.000001 -70.335101
2.347959 17.269907 0.889151 4.038398 -50.108539 7.908536 -8.223147 3.585975 9.668198 -1.053376 -18.940809 -19.057754 -1.808332 -0.900834 2.770005 0.601248 5.371374 4.924491 1.571000 -0.000000 -50.045500 12.107560 -2.880432 -1.187082 0.966276 -30.740912 -0.693081 1.498333 1.299247 -2.537050 -2.856886 -20.770054 8.106230 -6.907900 0.000000 -70.595900
2.360722 17.280816 0.890992 4.022734 -48.916978 7.625871 -8.175401 3.572445 9.714647 -1.075518 -19.319420 -18.335915 -1.889640 -0.954948 1.686106 0.487227 4.862151 5.700267 1.537301 -0.000000 -50.064999 12.180469 -3.010747 -1.320477 0.592657 -31.494075 0.016993 1.532425 1.247063 -2.855683 -2.743903 -20.372331 8.869693 -6.993200 0.000000 -70.933500
2.382258 17.290857 0.887289 4.035896 -48.040387 7.190948 -8.176326 3.539949 9.651261 -1.252878 -19.297664 -17.481977 -1.979632 -1.000086 0.761001 0.367518 4.266026 6.369640 1.457300 0.000000 -50.140000 12.223102 -3.125112 -1.454378 0.118150 -32.104525 0.694556 1.549869 1.168845 -2.895832 -2.635552 -19.883714 9.486141 -6.983100 -0.000000 -71.343500
2.411416 17.300658 0.877419 4.080439 -47.497005 6.618260 -8.224509 3.487692 9.478406 -1.570569 -18.871438 -16.509887 -2.074306 -1.037930 -0.014020 0.245096 3.600600 6.947668 1.338700 0.000000 -50.295000 12.237574 -3.223043 -1.584593 -0.437867 -32.563825 1.319873 1.550511 1.067832 -2.693036 -2.536595 -19.336979 9.962937 -6.895701 -0.000000 -71.811200
2.446587 17.310782 0.861289 4.158536 -47.291124 5.928234 -8.314457 3.417532 9.202543 -1.998248 -18.049804 -15.448597 -2.169835 -1.069792 -0.650774 0.122557 2.882568 7.455198 1.190100 -0.000000 -50.553000 12.229236 -3.305425 -1.706280 -1.049189 -32.876918 1.869639 1.536485 0.948489 -2.293219 -2.449916 -18.762359 10.316533 -6.752000 -0.000000 -72.352400
2.486061 17.321647 0.839251 4.267841 -47.410790 5.144514 -8.437965 3.333662 8.836570 -2.497377 -16.851396 -14.343345 -2.263230 -1.096320 -1.155940 0.001182 2.118085 7.912876 1.016900 0.000000 -50.930300 12.204800 -3.374097 -1.815123 -1.688272 -33.072122 2.311729 1.514001 0.815403 -1.726455 -2.373881 -18.162376 10.546158 -6.556700 0.000000 -72.864500
2.527642 17.333490 0.812054 4.412102 -47.829653 4.292253 -8.586246 3.241838 8.398478 -3.022571 -15.318056 -13.238919 -2.351357 -1.117686 -1.544768 -0.117020 1.318807 8.344463 0.825100 -0.000000 -51.436299 12.170474 -3.432420 -1.905517 -2.323744 -33.168098 2.633031 1.487023 0.674982 -1.054747 -2.309303 -17.567537 10.683815 -6.335100 0.000001 -73.386600
2.569394 17.346379 0.780662 4.592407 -48.505613 3.395924 -8.751060 3.147871 7.910503 -3.531187 -13.510603 -12.180927 -2.431690 -1.133736 -1.831713 -0.230046 0.495920 8.768792 0.619500 -0.000001 -52.068300 12.130364 -3.483154 -1.975627 -2.929596 -33.198984 2.823159 1.461566 0.533117 -0.322810 -2.253617 -16.983666 10.742796 -6.096400 -0.000000 -73.872701
2.609359 17.360305 0.746372 4.809648 -49.384325 2.484222 -8.926587 3.057045 7.395251 -3.988155 -11.497543 -11.217818 -2.502487 -1.143727 -2.022087 -0.336584 -0.348113 9.195852 0.401100 0.000000 -52.808600 12.085676 -3.528575 -2.024904 -3.479183 -33.193217 2.879355 1.442572 0.395759 0.426914 -2.204688 -16.419275 10.736559 -5.850500 0.000000 -74.269000
2.645695 17.375170 0.710511 5.064614 -50.402832 1.587417 -9.108517 2.973200 6.876151 -4.366226 -9.376270 -10.379635 -2.561830 -1.147397 -2.135005 -0.433413 -1.189591 9.633620 0.175900 0.000000 -53.622200 12.035200 -3.569466 -2.056865 -3.949704 -33.168226 2.816902 1.432550 0.268524 1.145623 -2.161409 -15.889620 10.688808 -5.611900 0.000000 -74.553500
2.676868 17.390959 0.674570 5.349121 -51.495217 0.742129 -9.293149 2.899261 6.376047 -4.648833 -7.253512 -9.688317 -2.608340 -1.144714 -2.188545 -0.517440 -1.999374 10.082071 -0.048900 -0.000000 -54.460500 11.976918 -3.605665 -2.075750 -4.319238 -33.130742 2.656903 1.432292 0.156302 1.792011 -2.123360 -15.411064 10.623018 -5.394200 -0.000000 -74.707000
2.701564 17.407569 0.640141 5.637053 -52.597915 -0.010246 -9.471823 2.840390 5.921361 -4.828913 -5.240556 -9.152281 -2.641595 -1.136711 -2.203270 -0.586110 -2.740113 10.534364 -0.263200 0.000000 -55.264300 11.913296 -3.638795 -2.080172 -4.568759 -33.079010 2.425773 1.440628 0.063537 2.332418 -2.090430 -14.999734 10.564589 -5.210100 -0.000001 -74.723600
2.718413 17.424496 0.608965 5.869078 -53.650412 -0.630106 -9.622000 2.809974 5.550516 -4.907070 -3.442180 -8.760710 -2.663483 -1.126992 -2.199466 -0.638896 -3.374173 10.972645 -0.455300 0.000000 -55.977000 11.859577 -3.678193 -2.052529 -4.691415 -33.020588 2.155683 1.455393 -0.005408 2.748666 -2.060277 -14.656511 10.532606 -5.063901 -0.000000 -74.626001
2.727106 17.440965 0.582170 5.989210 -54.589381 -1.093412 -9.725088 2.818003 5.292977 -4.891490 -1.953228 -8.480129 -2.675711 -1.119122 -2.195305 -0.676216 -3.860331 11.376937 -0.610300 0.000000 -56.547999 11.828806 -3.734274 -1.978913 -4.698603 -32.962531 1.890687 1.472632 -0.049931 3.040183 -2.031038 -14.377302 10.540531 -4.955800 -0.000001 -74.454800
